<svg width="97" height="97" viewBox="0 0 97 97" fill="none" xmlns="http://www.w3.org/2000/svg">
<path d="M74.8785 97C66.9759 97 57.1376 90.3139 50.2828 84.7004C48.9148 83.5861 47.8523 82.6527 47.1974 82.0817C46.4261 81.3991 45.9458 80.9533 45.844 80.8558L44.8689 79.9365C43.952 79.1147 42.9624 78.265 41.9291 77.4293C33.7063 70.7013 26.2984 66.6757 22.107 66.6757C13.7678 66.6757 6.9712 72.2057 6.9712 78.9893C6.9712 85.7869 13.7532 91.3169 22.107 91.3169C26.2839 91.3169 33.6917 87.3052 41.9291 80.5633L42.4238 80.1594L44.374 81.9842C44.7234 82.3185 45.2474 82.806 45.9314 83.4049L47.0665 84.4079L46.7172 84.6864C39.8624 90.2999 30.0242 96.9861 22.1215 96.9861C9.91103 97 0 88.9209 0 78.9893C0 69.0576 9.91103 60.9924 22.107 60.9924C29.9951 60.9924 39.8479 67.6786 46.7027 73.2923C48.0561 74.4065 49.1332 75.3258 49.7881 75.9109C50.5448 76.5796 51.025 77.0252 51.1415 77.1366L52.1312 78.07C52.9753 78.836 54.0086 79.6997 55.0711 80.5773C63.2939 87.3052 70.7016 91.3308 74.893 91.3308C83.2322 91.3308 90.0143 85.8008 90.0143 79.0033C90.0143 72.2057 83.2322 66.6897 74.893 66.6897C70.7162 66.6897 63.2939 70.7013 55.0711 77.4431L54.4889 77.9167L52.5533 76.078C52.2039 75.7438 51.6799 75.2562 50.9959 74.6573L49.8608 73.6543L50.2974 73.2923C57.1667 67.6786 67.005 60.9924 74.893 60.9924C87.0745 60.9924 97 69.0715 97 78.9893C97 88.9071 87.0598 97 74.8785 97Z" fill="#2D8BCA"/>
<path d="M48.5 17.6364C53.776 17.6364 58.0531 13.6883 58.0531 8.81814C58.0531 3.94801 53.776 0 48.5 0C43.2241 0 38.947 3.94801 38.947 8.81814C38.947 13.6883 43.2241 17.6364 48.5 17.6364Z" fill="#2D8BCA"/>
<path opacity="0.94" d="M48.4852 62.4621C44.2424 59.1992 30.2825 48.072 27.2711 40.5902C26.7222 39.2112 26.4402 37.7912 26.4552 36.385C26.4552 35.6204 26.5293 34.8696 26.6925 34.1323H26.722C27.4491 30.8555 29.7782 27.6061 33.1308 24.9849C32.4485 27.4013 32.0924 29.9954 32.0924 32.6715C32.0924 44.4539 46.7494 53.6697 47.3725 54.0656L48.5 54.7619L49.6276 54.0656C50.2505 53.6834 64.9077 44.5086 64.9077 32.6715C64.9077 29.9954 64.5516 27.415 63.8691 24.9849C67.2219 27.6061 69.551 30.8555 70.2779 34.1323H70.3076C70.4707 34.8696 70.5449 35.6204 70.5449 36.3577C70.5597 37.7912 70.2779 39.1975 69.729 40.5765C66.7323 48.0583 52.8023 59.1582 48.5296 62.4349L48.5149 62.4213L48.4852 62.4621Z" fill="#2D8BCA"/>
</svg>
